<svg xmlns="http://www.w3.org/2000/svg" width="476.404" height="197.438" viewBox="0 0 476.404 197.438">
  <defs>
    <style>
      .cls-1 {
        fill: #ff847c;
        stroke: #000;
        stroke-width: 1px;
        fill-rule: evenodd;
      }
    </style>
  </defs>
  <path id="plane_logo.svg" data-name="plane logo.svg" class="cls-1" d="M958.449,424.8a3.673,3.673,0,0,1,2.926.585c3.2,8.751,2.317,24.551,2.626,35.985,0.056,4.5.149,9.271,0.459,13.574,1.607,4.18,5.157,3.137,9.546,9.02A34.555,34.555,0,0,1,977,492c0.384,1.621.628,5.734-.179,7.805-1.571,4.031-2.859,5.944.723,8.32,18.353-2.281,36.206-4.329,54.046-6.377,6.49-1.144,18.74-2.475,20.48-1.463,1.21,2.433-8.36,4.381-13.53,5.347-9.53,1.783-21.22,3.123-30.94,5.186-5.47,1.161-9.62,1.7-14.627,3.511-0.682.5-.276,2.451,0.585,3.511,8.582,5.306,15.382,15.15,19.442,25.16,1.53,3.78,3.39,16.307,6.23,16.5,3.07,0.709,30.38-1,37.23-.993q32.325-1.315,64.75-2.557c13.33-.592,26.48-1.028,38.22-1.653,4.67-.249,32.44-1.187,35.42.114,1.7,0.744,3.14,1.812,3.22,4.389-2.63,5.058-20.47,5.4-31.07,6.636-25.12,2.931-50.8,4.749-76.31,8.871-0.19.487-.39,0.975-0.58,1.462,1.95,5.374,4.14,13.446,1.77,21.609-3.08,10.6-18.56,22.032-33.12,15.63-7.97-3.5-12.31-9.249-14.76-18.008-1.68-6,1.54-16.033-1-16.3-2.77-.3-24.55,2.354-28.08,3.218-3.61,5.608-5.79,12.431-9.66,17.555-10.5,13.909-35.03,28.436-61.147,20.48-6.7-2.04-13.2-5.829-18.724-9.362-6.576-4.208-12.284-12.012-16.385-18.725-1.739-2.848-2.314-7.466-6.142-10.286-4.239-2.969-22.529-3.115-27.5-2.3a0.558,0.558,0,0,0-.585.293,2.96,2.96,0,0,0-.97,2.71c0.13,1.386,1.1,3.756,1.263,5.482a22.567,22.567,0,0,1,0,2.341,33.954,33.954,0,0,1-.969,6.294c-1.554,6.044-4.6,10.628-9.137,13.669-15.329,10.266-34.173,1.921-38.169-13.527-2.221-8.584,1.608-14.531,2.341-21.065-0.293-.488-0.586-0.975-0.878-1.477-27.785-4.176-55.592-6.062-83.384-9.056-3.623-.765-25.6-0.72-22.994-8.066,1.7-5.223,35.007-1.942,43.474-1.881l63.2,2.34c4.194,0,8.388.293,12.581,0.293,11.819,0.85,23.573.457,35.987,1.17,6.466,0.372,23.849,2.5,24.576.585,0.58-2.344,3.245-15.489,6.21-20.355a85.527,85.527,0,0,1,18.951-22.068q-0.145-.732-0.292-1.463c-13.433-4.758-30.211-6.3-45.057-9.655-2.613-.591-11.568-1.516-15.213-4.388,1.494-4.28,14.556-1.3,18.432-.586l45.641,6.144c4.068,0.819,11.454,1.642,13.638-1.014,0.812-1.532.05-2.5-1.506-7.717-1.431-4.8.519-10.447,1.646-12.37,5.489-9.365,10.526-6.358,11.072-10.789,0.986-8,.1-22.829.463-33.515C955.936,433.82,955.267,428.054,958.449,424.8Zm-0.162,57.91a10.878,10.878,0,0,0-8.615,5.871c-4.463,8.932,2.536,19.72,12.677,17.1C975.373,502.32,972.473,481.561,958.287,482.711Zm-0.715,33.081a47.586,47.586,0,0,0-10.623,1.665c-16.681,5.91-28.391,16.033-33.263,33.444-9.017,32.221,20.039,65.165,52.37,59.685,21.056-3.569,34.444-17.274,39.794-36.572,2.54-9.172.54-21.41-2.25-27.088C994.814,529.007,983.85,516.14,957.572,515.792Zm7.022,25.746c4.608,0,11.408-.131,14.406.462,0.224,1.514-.759-3.637,1,5-0.028.424,0.88,2.925,0.685,3.315-3.78-.052-15.252.22-18.685-0.315,0.175-3.159-.024-5.315,0-8C962.181,541.38,964.022,541.635,964.594,541.538ZM928,542c1.739-.552.426,0.007,2,0,0.795-.132,6.885-0.659,7,0-2,4.792-2.755,6.105-4,9-1.542-.205-6.669.1-9,0A74.871,74.871,0,0,1,928,542Zm13,0c3.949,0.5,9.579-.438,13.671-0.085,0.637,0.055,2.1-.349,2.329.085a69.763,69.763,0,0,1,0,8c-2.84.277-16.687,0.754-18.856,0.84C939.453,546.705,941.09,542.79,941,542Zm48-.3c2.1,0.194,2.777-.395,3,0.3,0.821,2.521,1.043,3.2,2,6-0.052.184,0.851,1.885,0,2-1.469-.186-3.454.238-5,0-0.39-.045-2.2.551-3-0.192-1.927-6.377-3.943-8.55,0-7.808C986.787,541.776,988.691,541.924,989,541.7Zm9,0.253c1.3,1.236,2.463,4.616,3.153,6.927a0.457,0.457,0,0,0-.15.2c1.22,1.155-2.01.848-3,.926C997.381,547.455,993.7,538.658,998,541.949Zm-77.062.572c3.178-2.42,1.379,3.278.065,5.479-0.1.1-.9,2.9-1,3a22.392,22.392,0,0,1-3,0,4.3,4.3,0,0,1,0-2,37.221,37.221,0,0,1,2-4A7.089,7.089,0,0,1,920.935,542.521Zm37.931,22.3c15.785-.366,15.788,22.056.322,22.934-10.423.591-14.346-12.878-8.828-18.965A10.6,10.6,0,0,1,958.866,564.825Zm-109.254,7.141a21.615,21.615,0,0,0-5.267,1.17c-3.723,1.427-6.723,3.8-9.069,8.777-6.03,12.79,5.459,27.9,21.065,23.7C873.525,600.989,871.7,571.463,849.612,571.966Zm217.408,0.3c-7.13,1.141-11.08,3.093-14.51,10.022-6.11,12.323,5.84,26.238,18.58,23.91C1090.43,602.663,1089.98,572.1,1067.02,572.265Zm-146.9-27.508" transform="translate(-721.656 -424.75)"/>
</svg>
